<svg width="400" height="350" viewBox="0 0 400 350" fill="none" xmlns="http://www.w3.org/2000/svg">
<rect width="400" height="350" fill="#800080"/>
<path d="M178.329 183H190.184V179.342H183.229V176.584H189.074V173.079H183.229V170.717H190.041V167.004H178.329V183ZM191.557 175.485C191.557 178.122 192.238 180.085 193.6 181.374C194.97 182.656 196.827 183.297 199.17 183.297C201.302 183.297 203.001 182.78 204.268 181.748C205.535 180.708 206.169 179.305 206.169 177.54V176.782H201.203V177.496C201.203 178.258 201.042 178.829 200.719 179.21C200.397 179.583 199.899 179.77 199.225 179.77C198.39 179.77 197.775 179.525 197.38 179.034C196.984 178.536 196.786 177.694 196.786 176.507V173.497C196.786 172.244 196.995 171.395 197.413 170.948C197.83 170.494 198.409 170.267 199.148 170.267C199.844 170.267 200.361 170.428 200.698 170.75C201.034 171.073 201.203 171.618 201.203 172.387V173.255H206.169V172.596C206.169 170.728 205.535 169.282 204.268 168.256C203.001 167.224 201.302 166.707 199.17 166.707C196.849 166.707 194.999 167.341 193.622 168.608C192.245 169.868 191.557 171.838 191.557 174.519V175.485ZM207.245 175.485C207.245 178.122 207.927 180.085 209.289 181.374C210.658 182.656 212.515 183.297 214.859 183.297C216.99 183.297 218.689 182.78 219.957 181.748C221.224 180.708 221.857 179.305 221.857 177.54V176.782H216.891V177.496C216.891 178.258 216.73 178.829 216.408 179.21C216.086 179.583 215.588 179.77 214.914 179.77C214.079 179.77 213.464 179.525 213.068 179.034C212.673 178.536 212.475 177.694 212.475 176.507V173.497C212.475 172.244 212.684 171.395 213.101 170.948C213.519 170.494 214.097 170.267 214.837 170.267C215.533 170.267 216.049 170.428 216.386 170.75C216.723 171.073 216.891 171.618 216.891 172.387V173.255H221.857V172.596C221.857 170.728 221.224 169.282 219.957 168.256C218.689 167.224 216.99 166.707 214.859 166.707C212.537 166.707 210.688 167.341 209.311 168.608C207.934 169.868 207.245 171.838 207.245 174.519V175.485Z" fill="white"/>
</svg>
